/////////////////////////////////////////////////////////////////////////////
////
//// Creator : Michele Pedrazzi
//// Category: Piano

<global>
global_label=Manthey Klaviano


<group>
group_label=Velocity Layer 1
seq_length=2

<region>
sample=samples/25_pp1.wav
seq_position=1
pitch_keycenter=25
lokey=21 hikey=25
offset=0 end=622749
volume=8.00
ampeg_attack=0.002 ampeg_decay=20.0 ampeg_release=1 ampeg_sustain=100.0
loop_mode=no_loop
lovel=0 hivel=52
<region>
sample=samples/30_pp1.wav
seq_position=1
pitch_keycenter=30
lokey=26 hikey=30
offset=0 end=655254
tune=-20
volume=8.00
ampeg_attack=0.002 ampeg_decay=20.0 ampeg_release=1 ampeg_sustain=100.0
loop_mode=no_loop 
lovel=0 hivel=52
<region>
sample=samples/35_pp1.wav
seq_position=1
pitch_keycenter=35
lokey=31 hikey=35
offset=0 end=691802
tune=-20
volume=8.00
ampeg_attack=0.002 ampeg_decay=20.0 ampeg_release=1 ampeg_sustain=100.0
loop_mode=no_loop 
lovel=0 hivel=52
<region>
sample=samples/40_pp1.wav
seq_position=1
pitch_keycenter=40
lokey=36 hikey=40
offset=0 end=688388
tune=-15
volume=8.00
ampeg_attack=0.002 ampeg_decay=20.0 ampeg_release=1 ampeg_sustain=100.0
loop_mode=no_loop 
lovel=0 hivel=52
<region>
sample=samples/45_pp1.wav
seq_position=1
pitch_keycenter=45
lokey=41 hikey=45
offset=0 end=690152
tune=-10
volume=8.00
ampeg_attack=0.002 ampeg_decay=20.0 ampeg_release=1 ampeg_sustain=100.0
loop_mode=no_loop 
lovel=0 hivel=52
<region>
sample=samples/50_pp1.wav
seq_position=1
pitch_keycenter=50
lokey=46 hikey=50
offset=0 end=751093
tune=-5
volume=8.00
ampeg_attack=0.002 ampeg_decay=20.0 ampeg_release=1 ampeg_sustain=100.0
loop_mode=no_loop 
lovel=0 hivel=52
<region>
sample=samples/55_pp1.wav
seq_position=1
pitch_keycenter=55
lokey=51 hikey=55
offset=0 end=581756
volume=8.00
ampeg_attack=0.002 ampeg_decay=20.0 ampeg_release=1 ampeg_sustain=100.0
loop_mode=no_loop 
lovel=0 hivel=52
<region>
sample=samples/60_pp1.wav
seq_position=1
pitch_keycenter=60
lokey=56 hikey=60
offset=0 end=672072
tune=12
volume=8.00
ampeg_attack=0.002 ampeg_decay=20.0 ampeg_release=1 ampeg_sustain=100.0
loop_mode=no_loop 
lovel=0 hivel=52
<region>
sample=samples/65_pp1.wav
seq_position=1
pitch_keycenter=65
lokey=61 hikey=65
offset=0 end=692352
tune=2
volume=8.00
ampeg_attack=0.002 ampeg_decay=20.0 ampeg_release=1 ampeg_sustain=100.0
loop_mode=no_loop 
lovel=0 hivel=52
<region>
sample=samples/70_pp1.wav
seq_position=1
pitch_keycenter=70
lokey=66 hikey=70
offset=0 end=669759
tune=-5
volume=8.00
ampeg_attack=0.002 ampeg_decay=20.0 ampeg_release=1 ampeg_sustain=100.0
loop_mode=no_loop 
lovel=0 hivel=52
<region>
sample=samples/75_pp1.wav
seq_position=1
pitch_keycenter=75
lokey=71 hikey=75
offset=0 end=690672
tune=-5
volume=8.00
ampeg_attack=0.002 ampeg_decay=20.0 ampeg_release=1 ampeg_sustain=100.0
loop_mode=no_loop 
lovel=0 hivel=52
<region>
sample=samples/80_pp1.wav
seq_position=1
pitch_keycenter=80
lokey=76 hikey=80
offset=0 end=656371
tune=-3
volume=8.00
ampeg_attack=0.002 ampeg_decay=20.0 ampeg_release=1 ampeg_sustain=100.0
loop_mode=no_loop 
lovel=0 hivel=52
<region>
sample=samples/85_pp1.wav
seq_position=1
pitch_keycenter=85
lokey=81 hikey=85
offset=0 end=686489
tune=-5
volume=8.00
ampeg_attack=0.002 ampeg_decay=20.0 ampeg_release=1 ampeg_sustain=100.0
loop_mode=no_loop 
lovel=0 hivel=52
<region>
sample=samples/90_pp1.wav
seq_position=1
pitch_keycenter=90
lokey=86 hikey=90
offset=0 end=630097
tune=-10
volume=8.00
ampeg_attack=0.002 ampeg_decay=20.0 ampeg_release=1 ampeg_sustain=100.0
loop_mode=no_loop 
lovel=0 hivel=52
<region>
sample=samples/95_pp1.wav
seq_position=1
pitch_keycenter=95
lokey=91 hikey=95
offset=0 end=547666
tune=-7
volume=8.00
ampeg_attack=0.002 ampeg_decay=20.0 ampeg_release=1 ampeg_sustain=100.0
loop_mode=no_loop 
lovel=0 hivel=52
<region>
sample=samples/100_pp1.wav
seq_position=1
pitch_keycenter=100
lokey=96 hikey=100
offset=0 end=658144
tune=-16
volume=8.00
ampeg_attack=0.002 ampeg_decay=20.0 ampeg_release=1 ampeg_sustain=100.0
loop_mode=no_loop 
lovel=0 hivel=52
<region>
sample=samples/105_pp1.wav
seq_position=1
pitch_keycenter=105
lokey=101 hikey=105
offset=0 end=607633
tune=-16
volume=8.00
ampeg_attack=0.002 ampeg_decay=20.0 ampeg_release=1 ampeg_sustain=100.0
loop_mode=no_loop 
lovel=0 hivel=52
<region>
sample=samples/25_pp1.wav
seq_position=2
pitch_keycenter=25
lokey=21 hikey=25
offset=0 end=622749
volume=8.00
ampeg_attack=0.002 ampeg_decay=20.0 ampeg_release=1 ampeg_sustain=100.0
loop_mode=no_loop 
lovel=0 hivel=52
<region>
sample=samples/30_pp1.wav
seq_position=2
pitch_keycenter=30
lokey=26 hikey=30
offset=0 end=655254
tune=-20
volume=8.00
ampeg_attack=0.002 ampeg_decay=20.0 ampeg_release=1 ampeg_sustain=100.0
loop_mode=no_loop 
lovel=0 hivel=52
<region>
sample=samples/35_pp1.wav
seq_position=2
pitch_keycenter=35
lokey=31 hikey=35
offset=0 end=691802
tune=-20
volume=8.00
ampeg_attack=0.002 ampeg_decay=20.0 ampeg_release=1 ampeg_sustain=100.0
loop_mode=no_loop 
lovel=0 hivel=52
<region>
sample=samples/40_pp1.wav
seq_position=2
pitch_keycenter=40
lokey=36 hikey=40
offset=0 end=688388
tune=-15
volume=8.00
ampeg_attack=0.002 ampeg_decay=20.0 ampeg_release=1 ampeg_sustain=100.0
loop_mode=no_loop 
lovel=0 hivel=52
<region>
sample=samples/45_pp1.wav
seq_position=2
pitch_keycenter=45
lokey=41 hikey=45
offset=0 end=690152
tune=-10
volume=8.00
ampeg_attack=0.002 ampeg_decay=20.0 ampeg_release=1 ampeg_sustain=100.0
loop_mode=no_loop 
lovel=0 hivel=52
<region>
sample=samples/50_pp1.wav
seq_position=2
pitch_keycenter=50
lokey=46 hikey=50
offset=0 end=751093
tune=-5
volume=8.00
ampeg_attack=0.002 ampeg_decay=20.0 ampeg_release=1 ampeg_sustain=100.0
loop_mode=no_loop 
lovel=0 hivel=52
<region>
sample=samples/55_pp1.wav
seq_position=2
pitch_keycenter=55
lokey=51 hikey=55
offset=0 end=581756
volume=8.00
ampeg_attack=0.002 ampeg_decay=20.0 ampeg_release=1 ampeg_sustain=100.0
loop_mode=no_loop 
lovel=0 hivel=52
<region>
sample=samples/60_pp1.wav
seq_position=2
pitch_keycenter=60
lokey=56 hikey=60
offset=0 end=672072
tune=12
volume=8.00
ampeg_attack=0.002 ampeg_decay=20.0 ampeg_release=1 ampeg_sustain=100.0
loop_mode=no_loop 
lovel=0 hivel=52
<region>
sample=samples/65_pp1.wav
seq_position=2
pitch_keycenter=65
lokey=61 hikey=65
offset=0 end=692352
tune=2
volume=8.00
ampeg_attack=0.002 ampeg_decay=20.0 ampeg_release=1 ampeg_sustain=100.0
loop_mode=no_loop 
lovel=0 hivel=52
<region>
sample=samples/70_pp1.wav
seq_position=2
pitch_keycenter=70
lokey=66 hikey=70
offset=0 end=669759
tune=-5
volume=8.00
ampeg_attack=0.002 ampeg_decay=20.0 ampeg_release=1 ampeg_sustain=100.0
loop_mode=no_loop 
lovel=0 hivel=52
<region>
sample=samples/75_pp1.wav
seq_position=2
pitch_keycenter=75
lokey=71 hikey=75
offset=0 end=690672
tune=-5
volume=8.00
ampeg_attack=0.002 ampeg_decay=20.0 ampeg_release=1 ampeg_sustain=100.0
loop_mode=no_loop 
lovel=0 hivel=52
<region>
sample=samples/80_pp1.wav
seq_position=2
pitch_keycenter=80
lokey=76 hikey=80
offset=0 end=656371
tune=-3
volume=8.00
ampeg_attack=0.002 ampeg_decay=20.0 ampeg_release=1 ampeg_sustain=100.0
loop_mode=no_loop 
lovel=0 hivel=52
<region>
sample=samples/85_pp1.wav
seq_position=2
pitch_keycenter=85
lokey=81 hikey=85
offset=0 end=686489
tune=-5
volume=8.00
ampeg_attack=0.002 ampeg_decay=20.0 ampeg_release=1 ampeg_sustain=100.0
loop_mode=no_loop 
lovel=0 hivel=52
<region>
sample=samples/90_pp1.wav
seq_position=2
pitch_keycenter=90
lokey=86 hikey=90
offset=0 end=630097
tune=-10
volume=8.00
ampeg_attack=0.002 ampeg_decay=20.0 ampeg_release=1 ampeg_sustain=100.0
loop_mode=no_loop 
lovel=0 hivel=52
<region>
sample=samples/95_pp1.wav
seq_position=2
pitch_keycenter=95
lokey=91 hikey=95
offset=0 end=547666
tune=-7
volume=8.00
ampeg_attack=0.002 ampeg_decay=20.0 ampeg_release=1 ampeg_sustain=100.0
loop_mode=no_loop 
lovel=0 hivel=52
<region>
sample=samples/100_pp1.wav
seq_position=2
pitch_keycenter=100
lokey=96 hikey=100
offset=0 end=658144
tune=-16
volume=8.00
ampeg_attack=0.002 ampeg_decay=20.0 ampeg_release=1 ampeg_sustain=100.0
loop_mode=no_loop 
lovel=0 hivel=52
<region>
sample=samples/105_pp1.wav
seq_position=2
pitch_keycenter=105
lokey=101 hikey=105
offset=0 end=607633
tune=-16
volume=8.00
ampeg_attack=0.002 ampeg_decay=20.0 ampeg_release=1 ampeg_sustain=100.0
loop_mode=no_loop 
lovel=0 hivel=52
<group>
group_label=Velocity Layer 2
seq_length=2

<region>
sample=samples/25_p1.wav
seq_position=1
pitch_keycenter=25
lokey=21 hikey=25
offset=0 end=675920
volume=5.00
ampeg_attack=0.002 ampeg_decay=20.0 ampeg_release=1 ampeg_sustain=100.0
loop_mode=no_loop 
lovel=53 hivel=85
<region>
sample=samples/30_p1.wav
seq_position=1
pitch_keycenter=30
lokey=26 hikey=30
offset=0 end=580960
tune=-20
volume=5.00
ampeg_attack=0.002 ampeg_decay=20.0 ampeg_release=1 ampeg_sustain=100.0
loop_mode=no_loop 
lovel=53 hivel=85<region>
sample=samples/35_p1.wav
seq_position=1
pitch_keycenter=35
lokey=31 hikey=35
offset=0 end=617823
tune=-20
volume=5.00
ampeg_attack=0.002 ampeg_decay=20.0 ampeg_release=1 ampeg_sustain=100.0
loop_mode=no_loop 
lovel=53 hivel=85
<region>
sample=samples/40_p1.wav
seq_position=1
pitch_keycenter=40
lokey=36 hikey=40
offset=0 end=675816
tune=-15
volume=5.00
ampeg_attack=0.002 ampeg_decay=20.0 ampeg_release=1 ampeg_sustain=100.0
loop_mode=no_loop 
lovel=53 hivel=85
<region>
sample=samples/45_p1.wav
seq_position=1
pitch_keycenter=45
lokey=41 hikey=45
offset=0 end=651357
tune=-10
volume=5.00
ampeg_attack=0.002 ampeg_decay=20.0 ampeg_release=1 ampeg_sustain=100.0
loop_mode=no_loop 
lovel=53 hivel=85
<region>
sample=samples/50_p1.wav
seq_position=1
pitch_keycenter=50
lokey=46 hikey=50
offset=0 end=660445
tune=-5
volume=5.00
ampeg_attack=0.002 ampeg_decay=20.0 ampeg_release=1 ampeg_sustain=100.0
loop_mode=no_loop 
lovel=53 hivel=85
<region>
sample=samples/55_p1.wav
seq_position=1
pitch_keycenter=55
lokey=51 hikey=55
offset=0 end=577795
volume=5.00
ampeg_attack=0.002 ampeg_decay=20.0 ampeg_release=1 ampeg_sustain=100.0
loop_mode=no_loop 
lovel=53 hivel=85
<region>
sample=samples/60_p1.wav
seq_position=1
pitch_keycenter=60
lokey=56 hikey=60
offset=0 end=622214
tune=12
volume=5.00
ampeg_attack=0.002 ampeg_decay=20.0 ampeg_release=1 ampeg_sustain=100.0
loop_mode=no_loop 
lovel=53 hivel=85
<region>
sample=samples/65_p1.wav
seq_position=1
pitch_keycenter=65
lokey=61 hikey=65
offset=0 end=647561
tune=2
volume=5.00
ampeg_attack=0.002 ampeg_decay=20.0 ampeg_release=1 ampeg_sustain=100.0
loop_mode=no_loop 
lovel=53 hivel=85
<region>
sample=samples/70_p1.wav
seq_position=1
pitch_keycenter=70
lokey=66 hikey=70
offset=0 end=645179
tune=-5
volume=5.00
ampeg_attack=0.002 ampeg_decay=20.0 ampeg_release=1 ampeg_sustain=100.0
loop_mode=no_loop 
lovel=53 hivel=85
<region>
sample=samples/75_p1.wav
seq_position=1
pitch_keycenter=75
lokey=71 hikey=75
offset=0 end=630182
tune=-5
volume=5.00
ampeg_attack=0.002 ampeg_decay=20.0 ampeg_release=1 ampeg_sustain=100.0
loop_mode=no_loop 
lovel=53 hivel=85
<region>
sample=samples/80_p1.wav
seq_position=1
pitch_keycenter=80
lokey=76 hikey=80
offset=0 end=682174
tune=-3
volume=5.00
ampeg_attack=0.002 ampeg_decay=20.0 ampeg_release=1 ampeg_sustain=100.0
loop_mode=no_loop 
lovel=53 hivel=85
<region>
sample=samples/85_p1.wav
seq_position=1
pitch_keycenter=85
lokey=81 hikey=85
offset=0 end=660476
volume=5.00
ampeg_attack=0.002 ampeg_decay=20.0 ampeg_release=1 ampeg_sustain=100.0
loop_mode=no_loop 
lovel=53 hivel=85
<region>
sample=samples/90_p1.wav
seq_position=1
pitch_keycenter=90
lokey=86 hikey=90
offset=0 end=634128
volume=5.00
ampeg_attack=0.002 ampeg_decay=20.0 ampeg_release=1 ampeg_sustain=100.0
loop_mode=no_loop 
lovel=53 hivel=85
<region>
sample=samples/95_p1.wav
seq_position=1
pitch_keycenter=95
lokey=91 hikey=95
offset=0 end=615397
volume=5.00
ampeg_attack=0.002 ampeg_decay=20.0 ampeg_release=1 ampeg_sustain=100.0
loop_mode=no_loop 
lovel=53 hivel=85
<region>
sample=samples/100_p1.wav
seq_position=1
pitch_keycenter=100
lokey=96 hikey=100
offset=0 end=709162
volume=5.00
ampeg_attack=0.002 ampeg_decay=20.0 ampeg_release=1 ampeg_sustain=100.0
loop_mode=no_loop 
lovel=53 hivel=85
<region>
sample=samples/105_p1.wav
seq_position=1
pitch_keycenter=105
lokey=101 hikey=105
offset=0 end=573631
volume=5.00
ampeg_attack=0.002 ampeg_decay=20.0 ampeg_release=1 ampeg_sustain=100.0
loop_mode=no_loop 
lovel=53 hivel=85
<region>
sample=samples/25_p2.wav
seq_position=2
pitch_keycenter=25
lokey=21 hikey=25
offset=0 end=677105
volume=5.00
ampeg_attack=0.002 ampeg_decay=20.0 ampeg_release=1 ampeg_sustain=100.0
loop_mode=no_loop 
lovel=53 hivel=85
<region>
sample=samples/30_p2.wav
seq_position=2
pitch_keycenter=30
lokey=26 hikey=30
offset=0 end=592679
tune=-20
volume=5.00
ampeg_attack=0.002 ampeg_decay=20.0 ampeg_release=1 ampeg_sustain=100.0
loop_mode=no_loop 
lovel=53 hivel=85
<region>
sample=samples/35_p2.wav
seq_position=2
pitch_keycenter=35
lokey=31 hikey=35
offset=0 end=661204
tune=-20
volume=5.00
ampeg_attack=0.002 ampeg_decay=20.0 ampeg_release=1 ampeg_sustain=100.0
loop_mode=no_loop 
lovel=53 hivel=85
<region>
sample=samples/40_p2.wav
seq_position=2
pitch_keycenter=40
lokey=36 hikey=40
offset=0 end=623878
tune=-15
volume=5.00
ampeg_attack=0.002 ampeg_decay=20.0 ampeg_release=1 ampeg_sustain=100.0
loop_mode=no_loop 
lovel=53 hivel=85
<region>
sample=samples/45_p2.wav
seq_position=2
pitch_keycenter=45
lokey=41 hikey=45
offset=0 end=698545
tune=-10
volume=5.00
ampeg_attack=0.002 ampeg_decay=20.0 ampeg_release=1 ampeg_sustain=100.0
loop_mode=no_loop 
lovel=53 hivel=85
<region>
sample=samples/50_p2.wav
seq_position=2
pitch_keycenter=50
lokey=46 hikey=50
offset=0 end=665357
tune=-5
volume=5.00
ampeg_attack=0.002 ampeg_decay=20.0 ampeg_release=1 ampeg_sustain=100.0
loop_mode=no_loop 
lovel=53 hivel=85
<region>
sample=samples/55_p2.wav
seq_position=2
pitch_keycenter=55
lokey=51 hikey=55
offset=0 end=681434
volume=5.00
ampeg_attack=0.002 ampeg_decay=20.0 ampeg_release=1 ampeg_sustain=100.0
loop_mode=no_loop 
lovel=53 hivel=85
<region>
sample=samples/60_p2.wav
seq_position=2
pitch_keycenter=60
lokey=56 hikey=60
offset=0 end=679898
tune=12
volume=5.00
ampeg_attack=0.002 ampeg_decay=20.0 ampeg_release=1 ampeg_sustain=100.0
loop_mode=no_loop 
lovel=53 hivel=85
<region>
sample=samples/65_p2.wav
seq_position=2
pitch_keycenter=65
lokey=61 hikey=65
offset=0 end=636013
tune=2
volume=5.00
ampeg_attack=0.002 ampeg_decay=20.0 ampeg_release=1 ampeg_sustain=100.0
loop_mode=no_loop 
lovel=53 hivel=85
<region>
sample=samples/70_p2.wav
seq_position=2
pitch_keycenter=70
lokey=66 hikey=70
offset=0 end=675276
tune=-5
volume=5.00
ampeg_attack=0.002 ampeg_decay=20.0 ampeg_release=1 ampeg_sustain=100.0
loop_mode=no_loop 
lovel=53 hivel=85
<region>
sample=samples/75_p2.wav
seq_position=2
pitch_keycenter=75
lokey=71 hikey=75
offset=0 end=685589
tune=-5
volume=5.00
ampeg_attack=0.002 ampeg_decay=20.0 ampeg_release=1 ampeg_sustain=100.0
loop_mode=no_loop 
lovel=53 hivel=85
<region>
sample=samples/80_p2.wav
seq_position=2
pitch_keycenter=80
lokey=76 hikey=80
offset=0 end=674467
tune=-3
volume=5.00
ampeg_attack=0.002 ampeg_decay=20.0 ampeg_release=1 ampeg_sustain=100.0
loop_mode=no_loop 
lovel=53 hivel=85
<region>
sample=samples/85_p2.wav
seq_position=2
pitch_keycenter=85
lokey=81 hikey=85
offset=0 end=523933
tune=-5
volume=5.00
ampeg_attack=0.002 ampeg_decay=20.0 ampeg_release=1 ampeg_sustain=100.0
loop_mode=no_loop 
lovel=53 hivel=85
<region>
sample=samples/90_p2.wav
seq_position=2
pitch_keycenter=90
lokey=86 hikey=90
offset=0 end=605941
tune=-10
volume=5.00
ampeg_attack=0.002 ampeg_decay=20.0 ampeg_release=1 ampeg_sustain=100.0
loop_mode=no_loop 
lovel=53 hivel=85
<region>
sample=samples/95_p2.wav
seq_position=2
pitch_keycenter=95
lokey=91 hikey=95
offset=0 end=668100
tune=-7
volume=5.00
ampeg_attack=0.002 ampeg_decay=20.0 ampeg_release=1 ampeg_sustain=100.0
loop_mode=no_loop 
lovel=53 hivel=85
<region>
sample=samples/100_p2.wav
seq_position=2
pitch_keycenter=100
lokey=96 hikey=100
offset=0 end=592207
tune=-16
volume=5.00
ampeg_attack=0.002 ampeg_decay=20.0 ampeg_release=1 ampeg_sustain=100.0
loop_mode=no_loop 
lovel=53 hivel=85
<region>
sample=samples/105_p2.wav
seq_position=2
pitch_keycenter=105
lokey=101 hikey=105
offset=0 end=541319
tune=-16
volume=5.00
ampeg_attack=0.002 ampeg_decay=20.0 ampeg_release=1 ampeg_sustain=100.0
loop_mode=no_loop 
lovel=53 hivel=85

<group>
group_label=Velocity Layer 3
seq_length=2
lovel=86 hivel=116


<region>
sample=samples/25_mf1.wav
seq_position=1
pitch_keycenter=25
lokey=21 hikey=25
offset=0 end=667952
volume=2.00
ampeg_attack=0.002 ampeg_decay=20.0 ampeg_release=1 ampeg_sustain=100.0
loop_mode=no_loop 
<region>
sample=samples/30_mf1.wav
seq_position=1
pitch_keycenter=30
lokey=26 hikey=30
offset=0 end=690237
tune=-20
volume=2.00
ampeg_attack=0.002 ampeg_decay=20.0 ampeg_release=1 ampeg_sustain=100.0
loop_mode=no_loop 
<region>
sample=samples/35_mf1.wav
seq_position=1
pitch_keycenter=35
lokey=31 hikey=35
offset=0 end=696857
tune=-20
volume=2.00
ampeg_attack=0.002 ampeg_decay=20.0 ampeg_release=1 ampeg_sustain=100.0
loop_mode=no_loop 
<region>
sample=samples/40_mf1.wav
seq_position=1
pitch_keycenter=40
lokey=36 hikey=40
offset=0 end=687922
tune=-15
volume=2.00
ampeg_attack=0.002 ampeg_decay=20.0 ampeg_release=1 ampeg_sustain=100.0
loop_mode=no_loop 
<region>
sample=samples/45_mf1.wav
seq_position=1
pitch_keycenter=45
lokey=41 hikey=45
offset=0 end=702004
tune=-10
volume=2.00
ampeg_attack=0.002 ampeg_decay=20.0 ampeg_release=1 ampeg_sustain=100.0
loop_mode=no_loop 
<region>
sample=samples/50_mf1.wav
seq_position=1
pitch_keycenter=50
lokey=46 hikey=50
offset=0 end=662071
tune=-5
volume=2.00
ampeg_attack=0.002 ampeg_decay=20.0 ampeg_release=1 ampeg_sustain=100.0
loop_mode=no_loop 
<region>
sample=samples/55_mf1.wav
seq_position=1
pitch_keycenter=55
lokey=51 hikey=55
offset=0 end=543803
volume=2.00
ampeg_attack=0.002 ampeg_decay=20.0 ampeg_release=1 ampeg_sustain=100.0
loop_mode=no_loop 
<region>
sample=samples/60_mf1.wav
seq_position=1
pitch_keycenter=60
lokey=56 hikey=60
offset=0 end=635645
tune=13
volume=2.00
ampeg_attack=0.002 ampeg_decay=20.0 ampeg_release=1 ampeg_sustain=100.0
loop_mode=no_loop 
<region>
sample=samples/65_mf1.wav
seq_position=1
pitch_keycenter=65
lokey=61 hikey=65
offset=0 end=686436
tune=2
volume=2.00
ampeg_attack=0.002 ampeg_decay=20.0 ampeg_release=1 ampeg_sustain=100.0
loop_mode=no_loop 
<region>
sample=samples/70_mf1.wav
seq_position=1
pitch_keycenter=70
lokey=66 hikey=70
offset=0 end=662243
tune=-5
volume=2.00
ampeg_attack=0.002 ampeg_decay=20.0 ampeg_release=1 ampeg_sustain=100.0
loop_mode=no_loop 
<region>
sample=samples/75_mf1.wav
seq_position=1
pitch_keycenter=75
lokey=71 hikey=75
offset=0 end=676335
tune=-5
volume=2.00
ampeg_attack=0.002 ampeg_decay=20.0 ampeg_release=1 ampeg_sustain=100.0
loop_mode=no_loop 
<region>
sample=samples/80_mf1.wav
seq_position=1
pitch_keycenter=80
lokey=76 hikey=80
offset=0 end=688889
tune=-3
volume=2.00
ampeg_attack=0.002 ampeg_decay=20.0 ampeg_release=1 ampeg_sustain=100.0
loop_mode=no_loop 
<region>
sample=samples/85_mf1.wav
seq_position=1
pitch_keycenter=85
lokey=81 hikey=85
offset=0 end=688850
tune=-5
volume=2.00
ampeg_attack=0.002 ampeg_decay=20.0 ampeg_release=1 ampeg_sustain=100.0
loop_mode=no_loop 
<region>
sample=samples/90_mf1.wav
seq_position=1
pitch_keycenter=90
lokey=86 hikey=90
offset=0 end=663713
tune=-10
volume=2.00
ampeg_attack=0.002 ampeg_decay=20.0 ampeg_release=1 ampeg_sustain=100.0
loop_mode=no_loop 
<region>
sample=samples/95_mf1.wav
seq_position=1
pitch_keycenter=95
lokey=91 hikey=95
offset=0 end=666638
tune=-7
volume=2.00
ampeg_attack=0.002 ampeg_decay=20.0 ampeg_release=1 ampeg_sustain=100.0
loop_mode=no_loop 
<region>
sample=samples/100_mf1.wav
seq_position=1
pitch_keycenter=100
lokey=96 hikey=100
offset=0 end=674002
tune=-16
volume=2.00
ampeg_attack=0.002 ampeg_decay=20.0 ampeg_release=1 ampeg_sustain=100.0
loop_mode=no_loop 
<region>
sample=samples/105_mf1.wav
seq_position=1
pitch_keycenter=105
lokey=101 hikey=105
offset=0 end=428143
tune=-16
volume=2.00
ampeg_attack=0.002 ampeg_decay=20.0 ampeg_release=1 ampeg_sustain=100.0
loop_mode=no_loop 
<region>
sample=samples/25_mf2.wav
seq_position=2
pitch_keycenter=25
lokey=21 hikey=25
offset=0 end=688643
volume=2.00
ampeg_attack=0.002 ampeg_decay=20.0 ampeg_release=1 ampeg_sustain=100.0
loop_mode=no_loop 
<region>
sample=samples/30_mf2.wav
seq_position=2
pitch_keycenter=30
lokey=26 hikey=30
offset=0 end=692767
tune=-20
volume=2.00
ampeg_attack=0.002 ampeg_decay=20.0 ampeg_release=1 ampeg_sustain=100.0
loop_mode=no_loop 
<region>
sample=samples/35_mf2.wav
seq_position=2
pitch_keycenter=35
lokey=31 hikey=35
offset=0 end=676793
tune=-20
volume=2.00
ampeg_attack=0.002 ampeg_decay=20.0 ampeg_release=1 ampeg_sustain=100.0
loop_mode=no_loop 
<region>
sample=samples/40_mf2.wav
seq_position=2
pitch_keycenter=40
lokey=36 hikey=40
offset=0 end=693440
tune=-15
volume=2.00
ampeg_attack=0.002 ampeg_decay=20.0 ampeg_release=1 ampeg_sustain=100.0
loop_mode=no_loop 
<region>
sample=samples/45_mf2.wav
seq_position=2
pitch_keycenter=45
lokey=41 hikey=45
offset=0 end=686891
tune=-10
volume=2.00
ampeg_attack=0.002 ampeg_decay=20.0 ampeg_release=1 ampeg_sustain=100.0
loop_mode=no_loop 
<region>
sample=samples/50_mf2.wav
seq_position=2
pitch_keycenter=50
lokey=46 hikey=50
offset=0 end=694188
tune=-5
volume=2.00
ampeg_attack=0.002 ampeg_decay=20.0 ampeg_release=1 ampeg_sustain=100.0
loop_mode=no_loop 
<region>
sample=samples/55_mf2.wav
seq_position=2
pitch_keycenter=55
lokey=51 hikey=55
offset=0 end=668002
volume=2.00
ampeg_attack=0.002 ampeg_decay=20.0 ampeg_release=1 ampeg_sustain=100.0
loop_mode=no_loop 
<region>
sample=samples/60_mf2.wav
seq_position=2
pitch_keycenter=60
lokey=56 hikey=60
offset=0 end=696203
tune=13
volume=2.00
ampeg_attack=0.002 ampeg_decay=20.0 ampeg_release=1 ampeg_sustain=100.0
loop_mode=no_loop 
<region>
sample=samples/65_mf2.wav
seq_position=2
pitch_keycenter=65
lokey=61 hikey=65
offset=0 end=677957
tune=2
volume=2.00
ampeg_attack=0.002 ampeg_decay=20.0 ampeg_release=1 ampeg_sustain=100.0
loop_mode=no_loop 
<region>
sample=samples/70_mf2.wav
seq_position=2
pitch_keycenter=70
lokey=66 hikey=70
offset=0 end=682004
tune=-5
volume=2.00
ampeg_attack=0.002 ampeg_decay=20.0 ampeg_release=1 ampeg_sustain=100.0
loop_mode=no_loop 
<region>
sample=samples/75_mf2.wav
seq_position=2
pitch_keycenter=75
lokey=71 hikey=75
offset=0 end=679525
tune=-5
volume=2.00
ampeg_attack=0.002 ampeg_decay=20.0 ampeg_release=1 ampeg_sustain=100.0
loop_mode=no_loop 
<region>
sample=samples/80_mf2.wav
seq_position=2
pitch_keycenter=80
lokey=76 hikey=80
offset=0 end=690795
tune=-3
volume=2.00
ampeg_attack=0.002 ampeg_decay=20.0 ampeg_release=1 ampeg_sustain=100.0
loop_mode=no_loop 
<region>
sample=samples/85_mf2.wav
seq_position=2
pitch_keycenter=85
lokey=81 hikey=85
offset=0 end=688892
tune=-5
volume=2.00
ampeg_attack=0.002 ampeg_decay=20.0 ampeg_release=1 ampeg_sustain=100.0
loop_mode=no_loop 
<region>
sample=samples/90_mf2.wav
seq_position=2
pitch_keycenter=90
lokey=86 hikey=90
offset=0 end=642812
tune=-10
volume=2.00
ampeg_attack=0.002 ampeg_decay=20.0 ampeg_release=1 ampeg_sustain=100.0
loop_mode=no_loop 
<region>
sample=samples/95_mf2.wav
seq_position=2
pitch_keycenter=95
lokey=91 hikey=95
offset=0 end=672268
tune=-7
volume=2.00
ampeg_attack=0.002 ampeg_decay=20.0 ampeg_release=1 ampeg_sustain=100.0
loop_mode=no_loop 
<region>
sample=samples/100_mf2.wav
seq_position=2
pitch_keycenter=100
lokey=96 hikey=100
offset=0 end=596651
tune=-16
volume=2.00
ampeg_attack=0.002 ampeg_decay=20.0 ampeg_release=1 ampeg_sustain=100.0
loop_mode=no_loop 
<region>
sample=samples/105_mf2.wav
seq_position=2
pitch_keycenter=105
lokey=101 hikey=105
offset=0 end=410750
tune=-16
volume=2.00
ampeg_attack=0.002 ampeg_decay=20.0 ampeg_release=1 ampeg_sustain=100.0
loop_mode=no_loop 
<group>
group_label=Velocity Layer 4
seq_length=2
lovel=117 hivel=127

<region>
sample=samples/25_f1.wav
seq_position=1
pitch_keycenter=25
lokey=21 hikey=25
offset=0 end=701412
volume=3.00
ampeg_attack=0.002 ampeg_decay=20.0 ampeg_release=1 ampeg_sustain=100.0
loop_mode=no_loop 
<region>
sample=samples/30_f1.wav
seq_position=1
pitch_keycenter=30
lokey=26 hikey=30
offset=0 end=672858
tune=-20
volume=3.00
ampeg_attack=0.002 ampeg_decay=20.0 ampeg_release=1 ampeg_sustain=100.0
loop_mode=no_loop 
<region>
sample=samples/35_f1.wav
seq_position=1
pitch_keycenter=35
lokey=31 hikey=35
offset=0 end=683840
tune=-20
volume=3.00
ampeg_attack=0.002 ampeg_decay=20.0 ampeg_release=1 ampeg_sustain=100.0
loop_mode=no_loop 
<region>
sample=samples/40_f1.wav
seq_position=1
pitch_keycenter=40
lokey=36 hikey=40
offset=0 end=692456
tune=-15
volume=3.00
ampeg_attack=0.002 ampeg_decay=20.0 ampeg_release=1 ampeg_sustain=100.0
loop_mode=no_loop 
<region>
sample=samples/45_f1.wav
seq_position=1
pitch_keycenter=45
lokey=41 hikey=45
offset=0 end=666339
tune=-10
volume=3.00
ampeg_attack=0.002 ampeg_decay=20.0 ampeg_release=1 ampeg_sustain=100.0
loop_mode=no_loop 
<region>
sample=samples/50_f1.wav
seq_position=1
pitch_keycenter=50
lokey=46 hikey=50
offset=0 end=669129
tune=-5
volume=3.00
ampeg_attack=0.002 ampeg_decay=20.0 ampeg_release=1 ampeg_sustain=100.0
loop_mode=no_loop 
<region>
sample=samples/55_f1.wav
seq_position=1
pitch_keycenter=55
lokey=51 hikey=55
offset=0 end=701985
volume=3.00
ampeg_attack=0.002 ampeg_decay=20.0 ampeg_release=1 ampeg_sustain=100.0
loop_mode=no_loop 
<region>
sample=samples/60_f1.wav
seq_position=1
pitch_keycenter=60
lokey=56 hikey=60
offset=0 end=695737
tune=12
volume=3.00
ampeg_attack=0.002 ampeg_decay=20.0 ampeg_release=1 ampeg_sustain=100.0
loop_mode=no_loop 
<region>
sample=samples/65_f1.wav
seq_position=1
pitch_keycenter=65
lokey=61 hikey=65
offset=0 end=624922
tune=2
volume=3.00
ampeg_attack=0.002 ampeg_decay=20.0 ampeg_release=1 ampeg_sustain=100.0
loop_mode=no_loop 
<region>
sample=samples/70_f1.wav
seq_position=1
pitch_keycenter=70
lokey=66 hikey=70
offset=0 end=679780
tune=-5
volume=3.00
ampeg_attack=0.002 ampeg_decay=20.0 ampeg_release=1 ampeg_sustain=100.0
loop_mode=no_loop 
<region>
sample=samples/75_f1.wav
seq_position=1
pitch_keycenter=75
lokey=71 hikey=75
offset=0 end=765363
tune=-5
volume=3.00
ampeg_attack=0.002 ampeg_decay=20.0 ampeg_release=1 ampeg_sustain=100.0
loop_mode=no_loop 
<region>
sample=samples/80_f1.wav
seq_position=1
pitch_keycenter=80
lokey=76 hikey=80
offset=0 end=458628
tune=-3
volume=3.00
ampeg_attack=0.002 ampeg_decay=20.0 ampeg_release=1 ampeg_sustain=100.0
loop_mode=no_loop 
<region>
sample=samples/85_f1.wav
seq_position=1
pitch_keycenter=85
lokey=81 hikey=85
offset=0 end=515796
tune=-5
volume=3.00
ampeg_attack=0.002 ampeg_decay=20.0 ampeg_release=1 ampeg_sustain=100.0
loop_mode=no_loop 
<region>
sample=samples/90_f1.wav
seq_position=1
pitch_keycenter=90
lokey=86 hikey=90
offset=0 end=625115
tune=-10
volume=3.00
ampeg_attack=0.002 ampeg_decay=20.0 ampeg_release=1 ampeg_sustain=100.0
loop_mode=no_loop 
<region>
sample=samples/95_f1.wav
seq_position=1
pitch_keycenter=95
lokey=91 hikey=95
offset=0 end=684921
tune=-7
volume=3.00
ampeg_attack=0.002 ampeg_decay=20.0 ampeg_release=1 ampeg_sustain=100.0
loop_mode=no_loop 
<region>
sample=samples/100_f1.wav
seq_position=1
pitch_keycenter=100
lokey=96 hikey=100
offset=0 end=599643
tune=-16
volume=3.00
ampeg_attack=0.002 ampeg_decay=20.0 ampeg_release=1 ampeg_sustain=100.0
loop_mode=no_loop 
<region>
sample=samples/105_f1.wav
seq_position=1
pitch_keycenter=105
lokey=101 hikey=105
offset=0 end=337180
tune=-16
volume=3.00
ampeg_attack=0.002 ampeg_decay=20.0 ampeg_release=1 ampeg_sustain=100.0
loop_mode=no_loop 
<region>
sample=samples/25_f2.wav
seq_position=2
pitch_keycenter=25
lokey=21 hikey=25
offset=0 end=686825
volume=3.00
ampeg_attack=0.002 ampeg_decay=20.0 ampeg_release=1 ampeg_sustain=100.0
loop_mode=no_loop 
<region>
sample=samples/30_f2.wav
seq_position=2
pitch_keycenter=30
lokey=26 hikey=30
offset=0 end=687270
tune=-20
volume=3.00
ampeg_attack=0.002 ampeg_decay=20.0 ampeg_release=1 ampeg_sustain=100.0
loop_mode=no_loop 
<region>
sample=samples/35_f2.wav
seq_position=2
pitch_keycenter=35
lokey=31 hikey=35
offset=0 end=684087
tune=-20
volume=3.00
ampeg_attack=0.002 ampeg_decay=20.0 ampeg_release=1 ampeg_sustain=100.0
loop_mode=no_loop 
<region>
sample=samples/40_f2.wav
seq_position=2
pitch_keycenter=40
lokey=36 hikey=40
offset=0 end=686115
tune=-15
volume=3.00
ampeg_attack=0.002 ampeg_decay=20.0 ampeg_release=1 ampeg_sustain=100.0
loop_mode=no_loop 
<region>
sample=samples/45_f2.wav
seq_position=2
pitch_keycenter=45
lokey=41 hikey=45
offset=0 end=682609
tune=-10
volume=3.00
ampeg_attack=0.002 ampeg_decay=20.0 ampeg_release=1 ampeg_sustain=100.0
loop_mode=no_loop 
<region>
sample=samples/50_f2.wav
seq_position=2
pitch_keycenter=50
lokey=46 hikey=50
offset=0 end=679658
tune=-5
volume=3.00
ampeg_attack=0.002 ampeg_decay=20.0 ampeg_release=1 ampeg_sustain=100.0
loop_mode=no_loop 
<region>
sample=samples/55_f2.wav
seq_position=2
pitch_keycenter=55
lokey=51 hikey=55
offset=0 end=679255
volume=3.00
ampeg_attack=0.002 ampeg_decay=20.0 ampeg_release=1 ampeg_sustain=100.0
loop_mode=no_loop 
<region>
sample=samples/60_f2.wav
seq_position=2
pitch_keycenter=60
lokey=56 hikey=60
offset=0 end=671407
tune=12
volume=3.00
ampeg_attack=0.002 ampeg_decay=20.0 ampeg_release=1 ampeg_sustain=100.0
loop_mode=no_loop 
<region>
sample=samples/65_f2.wav
seq_position=2
pitch_keycenter=65
lokey=61 hikey=65
offset=0 end=674562
tune=2
volume=3.00
ampeg_attack=0.002 ampeg_decay=20.0 ampeg_release=1 ampeg_sustain=100.0
loop_mode=no_loop 
<region>
sample=samples/70_f2.wav
seq_position=2
pitch_keycenter=70
lokey=66 hikey=70
offset=0 end=663106
tune=-5
volume=3.00
ampeg_attack=0.002 ampeg_decay=20.0 ampeg_release=1 ampeg_sustain=100.0
loop_mode=no_loop 
<region>
sample=samples/75_f2.wav
seq_position=2
pitch_keycenter=75
lokey=71 hikey=75
offset=0 end=684332
tune=-5
volume=3.00
ampeg_attack=0.002 ampeg_decay=20.0 ampeg_release=1 ampeg_sustain=100.0
loop_mode=no_loop 
<region>
sample=samples/80_f2.wav
seq_position=2
pitch_keycenter=80
lokey=76 hikey=80
offset=0 end=665038
tune=-3
volume=3.00
ampeg_attack=0.002 ampeg_decay=20.0 ampeg_release=1 ampeg_sustain=100.0
loop_mode=no_loop 
<region>
sample=samples/85_f2.wav
seq_position=2
pitch_keycenter=85
lokey=81 hikey=85
offset=0 end=673536
tune=-5
volume=3.00
ampeg_attack=0.002 ampeg_decay=20.0 ampeg_release=1 ampeg_sustain=100.0
loop_mode=no_loop 
<region>
sample=samples/90_f2.wav
seq_position=2
pitch_keycenter=90
lokey=86 hikey=90
offset=0 end=673036
tune=-10
volume=3.00
ampeg_attack=0.002 ampeg_decay=20.0 ampeg_release=1 ampeg_sustain=100.0
loop_mode=no_loop 
<region>
sample=samples/95_f2.wav
seq_position=2
pitch_keycenter=95
lokey=91 hikey=95
offset=0 end=670003
tune=-7
volume=3.00
ampeg_attack=0.002 ampeg_decay=20.0 ampeg_release=1 ampeg_sustain=100.0
loop_mode=no_loop 
<region>
sample=samples/100_f2.wav
seq_position=2
pitch_keycenter=100
lokey=96 hikey=100
offset=0 end=686066
tune=-16
volume=3.00
ampeg_attack=0.002 ampeg_decay=20.0 ampeg_release=1 ampeg_sustain=100.0
loop_mode=no_loop 
<region>
sample=samples/105_f2.wav
seq_position=2
pitch_keycenter=105
lokey=101 hikey=105
offset=0 end=622482
tune=-16
volume=3.00
ampeg_attack=0.002 ampeg_decay=20.0 ampeg_release=1 ampeg_sustain=100.0
loop_mode=no_loop 
<group>
group_label=Velocity Layer 5
seq_length=1
lovel=0 hivel=127
trigger=release_key

<region>
sample=samples/25_r1.wav
seq_position=1
pitch_keycenter=25
lokey=21 hikey=25
offset=0 end=33459
volume=3.00
ampeg_attack=0.000 ampeg_decay=40.0 ampeg_release=1 ampeg_sustain=100.0
loop_mode=no_loop 
<region>
sample=samples/30_r1.wav
seq_position=1
pitch_keycenter=30
lokey=26 hikey=30
offset=0 end=33716
volume=3.00
ampeg_attack=0.000 ampeg_decay=40.0 ampeg_release=1 ampeg_sustain=100.0
loop_mode=no_loop 
<region>
sample=samples/35_r1.wav
seq_position=1
pitch_keycenter=35
lokey=31 hikey=35
offset=0 end=33559
volume=3.00
ampeg_attack=0.000 ampeg_decay=40.0 ampeg_release=1 ampeg_sustain=100.0
loop_mode=no_loop 
<region>
sample=samples/40_r1.wav
seq_position=1
pitch_keycenter=40
lokey=36 hikey=40
offset=0 end=36830
volume=3.00
ampeg_attack=0.000 ampeg_decay=40.0 ampeg_release=1 ampeg_sustain=100.0
loop_mode=no_loop 
<region>
sample=samples/45_r1.wav
seq_position=1
pitch_keycenter=45
lokey=41 hikey=45
offset=0 end=35633
volume=3.00
ampeg_attack=0.000 ampeg_decay=40.0 ampeg_release=1 ampeg_sustain=100.0
loop_mode=no_loop 
<region>
sample=samples/50_r1.wav
seq_position=1
pitch_keycenter=50
lokey=46 hikey=50
offset=0 end=35979
volume=3.00
ampeg_attack=0.000 ampeg_decay=40.0 ampeg_release=1 ampeg_sustain=100.0
loop_mode=no_loop 
<region>
sample=samples/55_r1.wav
seq_position=1
pitch_keycenter=55
lokey=51 hikey=55
offset=0 end=34228
volume=3.00
ampeg_attack=0.000 ampeg_decay=40.0 ampeg_release=1 ampeg_sustain=100.0
loop_mode=no_loop 
<region>
sample=samples/60_r1.wav
seq_position=1
pitch_keycenter=60
lokey=56 hikey=60
offset=0 end=34362
volume=3.00
ampeg_attack=0.000 ampeg_decay=40.0 ampeg_release=1 ampeg_sustain=100.0
loop_mode=no_loop 
<region>
sample=samples/65_r1.wav
seq_position=1
pitch_keycenter=65
lokey=61 hikey=65
offset=0 end=36231
volume=3.00
ampeg_attack=0.000 ampeg_decay=40.0 ampeg_release=1 ampeg_sustain=100.0
loop_mode=no_loop 
<region>
sample=samples/70_r1.wav
seq_position=1
pitch_keycenter=70
lokey=66 hikey=70
offset=0 end=35961
volume=3.00
ampeg_attack=0.000 ampeg_decay=40.0 ampeg_release=1 ampeg_sustain=100.0
loop_mode=no_loop 
<region>
sample=samples/75_r1.wav
seq_position=1
pitch_keycenter=75
lokey=71 hikey=75
offset=0 end=34742
volume=3.00
ampeg_attack=0.000 ampeg_decay=40.0 ampeg_release=1 ampeg_sustain=100.0
loop_mode=no_loop 
<region>
sample=samples/80_r1.wav
seq_position=1
pitch_keycenter=80
lokey=76 hikey=80
offset=0 end=36928
volume=3.00
ampeg_attack=0.000 ampeg_decay=40.0 ampeg_release=1 ampeg_sustain=100.0
loop_mode=no_loop 
<region>
sample=samples/85_r1.wav
seq_position=1
pitch_keycenter=85
lokey=81 hikey=85
offset=0 end=38954
volume=3.00
ampeg_attack=0.000 ampeg_decay=40.0 ampeg_release=1 ampeg_sustain=100.0
loop_mode=no_loop 
<region>
sample=samples/90_r1.wav
seq_position=1
pitch_keycenter=90
lokey=86 hikey=90
offset=0 end=40408
volume=3.00
ampeg_attack=0.000 ampeg_decay=40.0 ampeg_release=1 ampeg_sustain=100.0
loop_mode=no_loop 
<region>
sample=samples/95_r1.wav
seq_position=1
pitch_keycenter=95
lokey=91 hikey=95
offset=0 end=35103
volume=3.00
ampeg_attack=0.000 ampeg_decay=40.0 ampeg_release=1 ampeg_sustain=100.0
loop_mode=no_loop 
<region>
sample=samples/100_r1.wav
seq_position=1
pitch_keycenter=100
lokey=96 hikey=100
offset=0 end=40736
volume=3.00
ampeg_attack=0.000 ampeg_decay=40.0 ampeg_release=1 ampeg_sustain=100.0
loop_mode=no_loop 
<region>
sample=samples/105_r1.wav
seq_position=1
pitch_keycenter=105
lokey=101 hikey=105
offset=0 end=42727
volume=3.00
ampeg_attack=0.000 ampeg_decay=40.0 ampeg_release=1 ampeg_sustain=100.0
loop_mode=no_loop 